<svg id="Layer_1" data-name="Layer 1" xmlns="http://www.w3.org/2000/svg" viewBox="0 0 683.97 105.01"><defs><style>.cls-1{fill:#7c141e;}</style></defs><title>Camosaurs Logo     dddddddddd</title><g id="Capa_1" data-name="Capa 1"><path class="cls-1" d="M45.64,87c-9.28-.78-16.46-4.6-21.35-11.38s-7.16-15-7-24.73a57.85,57.85,0,0,1,6.57-27.13C28.2,15.45,34.07,9.63,41.33,6.44a2.67,2.67,0,0,0,1.53-1.56A2.27,2.27,0,0,0,42.53,3a2.49,2.49,0,0,0-2.17-1.28A3.12,3.12,0,0,0,39.12,2C30.64,5.71,23.9,12.28,19.06,21.59a62.44,62.44,0,0,0-7.2,29.3,53.48,53.48,0,0,0,3.19,18.87A34.51,34.51,0,0,0,26.12,84.65a35.23,35.23,0,0,0,19,7.32h.4a2.34,2.34,0,0,0,2.57-2.09s0-.09,0-.14a2.38,2.38,0,0,0-.45-1.84A2.85,2.85,0,0,0,45.64,87Z" transform="translate(-11.86 -0.06)"/><path class="cls-1" d="M113.27,25.15c-.13-1.78-.6-5.38-1.4-10.73a41.62,41.62,0,0,1-.76-5.89,2.43,2.43,0,0,0,2.63-1.89,2.28,2.28,0,0,0-.14-1.86,2.81,2.81,0,0,0-1.86-1.24,5,5,0,0,0-.94-.18,2.84,2.84,0,0,0-2.17-1.25,2.66,2.66,0,0,0-2.76,1.29c-4.41.83-8.26,3.67-11.46,8.46-3.49,5.19-6.2,12.73-8.06,22.45a143.94,143.94,0,0,0-2.6,25.28c-.14,8.91.33,14.77,1.43,17.89a21.66,21.66,0,0,0,3.7,6.68,20.73,20.73,0,0,0,5.81,5.27,9.73,9.73,0,0,0,7.93.92c2.72-.88,4.87-3.13,6.41-6.7,1.36-3.11,2.06-7.26,2.06-12.33,0-.36,0-1.53-.06-3.64,1,8.47,2.3,16.42,3.77,23.71a2.4,2.4,0,0,0,2.49,2,6,6,0,0,0,.74-.07A2.8,2.8,0,0,0,120,92.23a2.34,2.34,0,0,0,.26-1.88C116.8,74,114.47,52,113.27,25.15Zm-7.62,34.29c-.11.36-.19,1.32-.11,6,.06,3.4.11,5.57.11,5.94,0,4.53-.52,8-1.53,10.36s-2.1,3.64-3.33,4.12a4,4,0,0,1-3.18-.63,15.39,15.39,0,0,1-4.26-3.9A16.2,16.2,0,0,1,90.56,76c-1-2.35-1.46-7.83-1.33-16.3a133.5,133.5,0,0,1,2.57-24.5c1.7-9,4.13-16,7.24-20.67a15.53,15.53,0,0,1,5.68-5.27c.76,13.48,1.14,23.34,1.14,29.3,0,12-.09,19-.21,20.9Z" transform="translate(-11.86 -0.06)"/><path class="cls-1" d="M192.37,10.46a21.54,21.54,0,0,1-.19-2.54,2.46,2.46,0,0,0-.21-1,2.53,2.53,0,0,0-.33-1.29,6.13,6.13,0,0,0-5.36-2.78h-.42a10.49,10.49,0,0,0-5.51,1.84,19.33,19.33,0,0,0-3,2,1.6,1.6,0,0,0-.11-.43,2.81,2.81,0,0,1-.16-.91V5.16L177,5a4.83,4.83,0,0,0-1-1.25,7.23,7.23,0,0,0-7.08-1.35,19.41,19.41,0,0,0-5.4,3.29c-.47.41-1,.86-1.46,1.35l-.3-4.72A2.35,2.35,0,0,0,159.29.06h-.53a2.77,2.77,0,0,0-2,.9,2.33,2.33,0,0,0-.46,1.82c.25,3.23.45,6.54.58,9.83l-.14.08-.12.06-.15.14a2.4,2.4,0,0,0,0,3.39,2,2,0,0,0,.31.27l.22.15h.14c.89,21.86.68,46.29-.62,72.63,0,.76.26,2.49,2.72,2.49a3,3,0,0,0,2-.64,2.3,2.3,0,0,0,.72-1.8c1.31-27.27,1.46-52.52.42-75.06l1-1.16a31.52,31.52,0,0,1,3.94-3.81,9,9,0,0,1,3.47-2.27,2,2,0,0,1,1.06,0h0a23.79,23.79,0,0,1,.38,2.52c.14,1.51.27,4.43.4,8.7.26,6.69.33,15.55.2,26.35,0,7.51-.06,16.45-.2,27.33-.12,10-.2,16.32-.2,17.22s.27,2.47,2.72,2.47c1.71,0,2.73-.92,2.73-2.47,0-.85.08-7.27.2-17.21.14-10.9.2-19.84.2-27.34.13-11.29.06-20.23-.2-26.55,0-1.73-.06-3.29-.18-4.66a.87.87,0,0,0,.14-.31,15.56,15.56,0,0,1,5.21-4.33c1.58-.84,2.7-1.11,3.5-.88V8.1a25.63,25.63,0,0,0,.19,2.63c0,2.12.07,5.12.2,8.91V46.36q-.19,13.1-.39,27.6c-.14,8.65-.27,13.81-.4,15.29a2.4,2.4,0,0,0,.45,1.85,2.73,2.73,0,0,0,2,.9h.41a2.35,2.35,0,0,0,2.57-2.11.57.57,0,0,0,0-.13c.14-1.55.27-6.86.41-15.79.12-9.47.25-18.76.39-27.6V19.42C192.45,15.76,192.38,12.76,192.37,10.46Z" transform="translate(-11.86 -0.06)"/><path class="cls-1" d="M249,6.19a10.62,10.62,0,0,0-2-1.67,2.33,2.33,0,0,0-2.56-2.07H244a12.68,12.68,0,0,1-1.51.17,3.62,3.62,0,0,0-1.13.19c-4.3.63-7.26,2.38-8.81,5.21a16.57,16.57,0,0,0-1.69,6c-.4,2.43-.81,5.57-1.2,9.3-.67,7.1-1.07,15.53-1.2,25S228.22,66,228.62,73c.13,3.48.32,6.49.6,9,.27,2.71.71,4.47,1.31,5.39,1.3,1.92,3.54,3.19,6.64,3.81a21.77,21.77,0,0,0,4.26.45c4,0,6.92-1.46,8.68-4.35a21.57,21.57,0,0,0,1.27-5.12c.27-2.11.46-5,.6-8.44.39-6.24.66-14.13.79-23.44.26-21.14-.08-34.13-1-38.6A11,11,0,0,0,249,6.19Zm-1.66,44.16c-.13,9.17-.4,17-.79,23.21-.14,3.34-.33,6-.59,8.06-.34,2.57-.59,3.15-.7,3.3-.71,1.19-2,1.75-4,1.75a15.94,15.94,0,0,1-3-.34,4.48,4.48,0,0,1-2.93-1.47s-.29-.44-.66-3.49c-.26-2.17-.46-5-.59-8.32-.39-7-.46-15.17-.2-24.42.14-9.48.53-17.81,1.19-24.73.4-3.71.8-6.81,1.19-9.21a20.78,20.78,0,0,1,1.1-4.46C238.12,9,239.68,8.14,242,7.8a8.35,8.35,0,0,1,3,1.73,5.31,5.31,0,0,1,1.36,3.25C247.11,16.76,247.45,29.42,247.32,50.35Z" transform="translate(-11.86 -0.06)"/><path class="cls-1" d="M312.06,52.06a39.79,39.79,0,0,0-3.76-5.25,65.75,65.75,0,0,0-5.14-4.88L299,38.47c-2.94-2.79-4.74-5.49-5.36-8-.76-3.43.09-7.85,2.53-13.15,2.93-6.38,7.19-10.25,12.67-11.48a2.66,2.66,0,0,0,1.69-1.2,2.69,2.69,0,0,0-1.34-3.56,2.63,2.63,0,0,0-1.1-.24,3.71,3.71,0,0,0-.81.08c-7,1.68-12.35,6.52-16,14.37-3,6.31-3.93,11.76-2.84,16.21.83,3.51,3,7,6.59,10.34l4.38,3.84c2.23,2,3.82,3.45,4.72,4.41a31,31,0,0,1,3.21,4.34,17,17,0,0,1,2.39,6c1.81,8.3,1.56,15-.74,19.77-2.8,5.6-8.25,7.92-16.78,7.12-1.75-.15-2.81.65-3,2.22a2.37,2.37,0,0,0,.45,1.84,2.81,2.81,0,0,0,2,.89c1.23.1,2.41.17,3.5.17,9.11,0,15.4-3.49,18.7-10.36,2.85-5.72,3.27-13.34,1.26-22.67A23.68,23.68,0,0,0,312.06,52.06Z" transform="translate(-11.86 -0.06)"/><path class="cls-1" d="M381.32,25.15c-.14-1.78-.61-5.29-1.4-10.73a41.64,41.64,0,0,1-.77-5.89,2.41,2.41,0,0,0,2.63-1.89,2.3,2.3,0,0,0-.13-1.85,2.81,2.81,0,0,0-1.87-1.25,4.83,4.83,0,0,0-.92-.18,2.87,2.87,0,0,0-2.19-1.25,2.64,2.64,0,0,0-2.76,1.29c-4.4.83-8.25,3.67-11.45,8.46-3.49,5.19-6.22,12.73-8.08,22.45a143.94,143.94,0,0,0-2.6,25.28c-.13,8.91.34,14.77,1.43,17.88a21.48,21.48,0,0,0,3.69,6.69,20.87,20.87,0,0,0,5.81,5.27,9.76,9.76,0,0,0,7.93.92c2.73-.88,4.89-3.13,6.42-6.7,1.36-3.11,2-7.26,2-12.33,0-.36,0-1.48-.05-3.64,1,8.47,2.31,16.42,3.78,23.71a2.38,2.38,0,0,0,2.49,2,6,6,0,0,0,.74-.07A2.86,2.86,0,0,0,388,92.23a2.38,2.38,0,0,0,.26-1.88C384.86,74,382.5,52,381.32,25.15Zm-7.64,34.29c-.11.34-.2,1.32-.11,6,.07,3.64.1,5.57.1,5.94,0,4.53-.51,8-1.54,10.36s-2.09,3.64-3.33,4.12a4,4,0,0,1-3.18-.63,15.14,15.14,0,0,1-4.27-3.9A16,16,0,0,1,358.56,76c-1-2.35-1.46-7.83-1.33-16.3a133.5,133.5,0,0,1,2.57-24.5c1.7-9.06,4.14-16,7.25-20.67a15.53,15.53,0,0,1,5.68-5.27c.75,13.44,1.13,23.29,1.13,29.3,0,12,0,19.06-.18,20.9Z" transform="translate(-11.86 -0.06)"/><path class="cls-1" d="M449.32,2.12c-2.46,0-2.72,1.73-2.72,2.48V80.76a1.8,1.8,0,0,0-.59,1.36,3.82,3.82,0,0,1-2.2,3.17,10.37,10.37,0,0,1-5.48,1,10.81,10.81,0,0,1-5.6-1.72,5.28,5.28,0,0,1-2.56-3.44c-.92-5.62-1.05-15-.39-28C430,48,430.1,40,430,29.33c0-10.39.12-18.08.4-23.5A2.34,2.34,0,0,0,429.9,4a2.82,2.82,0,0,0-2-.9A2.43,2.43,0,0,0,425,4.88a2.76,2.76,0,0,0-.07.49c-.27,5.61-.39,13.45-.39,24s.05,18.52-.21,23.71c-.66,13-.53,22.66.42,28.61a9.33,9.33,0,0,0,4.71,6.82,19.6,19.6,0,0,0,8.51,2.72,16.32,16.32,0,0,0,8.64-1.83v.22c0,1.55,1,2.47,2.72,2.47s2.74-.92,2.74-2.47V4.6C452.06,3,451,2.12,449.32,2.12Z" transform="translate(-11.86 -0.06)"/><path class="cls-1" d="M513.3.76a22.28,22.28,0,0,0-12.13,3.52,28.44,28.44,0,0,0-7.61,7.06V5.16c0-1.55-1-2.48-2.74-2.48s-2.72.91-2.72,2.48V89.53c0,.76.27,2.48,2.72,2.48,1.71,0,2.74-.93,2.74-2.48V23.41a3.55,3.55,0,0,0,.57-1,23,23,0,0,1,7-11.68,17.61,17.61,0,0,1,12.14-5c1.7,0,2.73-.92,2.73-2.48A2.38,2.38,0,0,0,513.3.76Z" transform="translate(-11.86 -0.06)"/><path class="cls-1" d="M575.51,52.06a40.39,40.39,0,0,0-3.75-5.25,64.29,64.29,0,0,0-5.16-4.88l-4.14-3.46c-2.93-2.79-4.73-5.49-5.36-8-.75-3.43.1-7.85,2.54-13.15,2.93-6.38,7.18-10.25,12.66-11.48A2.66,2.66,0,0,0,574,4.64a2.46,2.46,0,0,0,.11-1.9,2.49,2.49,0,0,0-2.54-1.9,4.45,4.45,0,0,0-.81.08c-7,1.68-12.35,6.51-16,14.37-3,6.3-3.93,11.75-2.83,16.21.82,3.5,3,7,6.6,10.34l4.37,3.84c2.24,2,3.82,3.45,4.72,4.41a30.93,30.93,0,0,1,3.2,4.34,16.78,16.78,0,0,1,2.39,6c1.8,8.3,1.57,15-.74,19.77-2.81,5.6-8.27,7.91-16.78,7.12-1.76-.15-2.81.65-3,2.22a2.33,2.33,0,0,0,.45,1.84,2.81,2.81,0,0,0,2,.89c1.22.1,2.4.17,3.5.17,9.11,0,15.4-3.49,18.7-10.36,2.83-5.72,3.27-13.34,1.26-22.67A23.37,23.37,0,0,0,575.51,52.06Z" transform="translate(-11.86 -0.06)"/><path class="cls-1" d="M643.6,70.87a56.48,56.48,0,0,0,2.46-6.11c.17-.54,1.59-5.32-.5-7.32a8.48,8.48,0,0,0-5.48-1.94,5.53,5.53,0,0,0-2.27.43,13.8,13.8,0,0,0-6,6,11.11,11.11,0,0,0-.77,1.85,6.23,6.23,0,0,0-6.37-4.16,12.77,12.77,0,0,0-1.38.08c-4.87.52-7.18,3-7.07,7.69,0,1.54.23,3,.42,4.51v.27c.24,2,.47,3.91.71,5.87.67,5.72,1.37,11.64,2.3,17.44a14.71,14.71,0,0,0,3.53,7.37,6.85,6.85,0,0,0,5,2.21,5.09,5.09,0,0,0,5.31-4.1c1-5.83,4.1-10.19,10.36-14.58a5.7,5.7,0,0,0,2.78-5.14c-.12-1-.74-2.91-3.62-4.07-1.43-.58-1.7-1-.94-2.85C642.55,73.16,643.09,72,643.6,70.87Z" transform="translate(-11.86 -0.06)"/><path class="cls-1" d="M628.51,53.9S625,37.24,623.27,37.24c0,0-5.46.41-5.25,20.58Z" transform="translate(-11.86 -0.06)"/><path class="cls-1" d="M635.77,52.57h12.14L645,36.32S643.24,31.9,635.77,52.57Z" transform="translate(-11.86 -0.06)"/><path class="cls-1" d="M689.86,30.88c-4-2.14-7-1.75-9.53,1.11a33.12,33.12,0,0,0,0-4.88c-.35-4.08-4.9-7.37-8.44-7.37a5.46,5.46,0,0,0-1.07.1c-5.22,1-5,5.48-4.86,8.17v.23c0,.66.07,1.33.12,2a68.87,68.87,0,0,1,.14,8,3,3,0,0,1-1.09,1.6c-2.66.8-5.1,1.68-5.82,3.79-.66,1.9.36,3.94,2.1,6.43,3.41,4.87,4.46,9,3.5,13.82a6.78,6.78,0,0,0,1.32,5.71,6.06,6.06,0,0,0,4.7,2.22,7.06,7.06,0,0,0,3.76-1.14c2.61-1.67,4.34-4.58,5.88-7.15l.24-.41c1.17-1.94,2.14-4,3.09-6,.7-1.45,1.41-2.95,2.19-4.36s1.69-2.9,2.56-4.31a62.9,62.9,0,0,0,4-7C693.56,39.45,696,34.15,689.86,30.88Z" transform="translate(-11.86 -0.06)"/><path class="cls-1" d="M691.74,8.65c-1.76-.12-6.4,16.26-6.4,16.26l10.18,4.63C697.15,9.45,691.74,8.65,691.74,8.65Z" transform="translate(-11.86 -0.06)"/><path class="cls-1" d="M676.86.89,669,15.39l11.52,3.86C680-2.74,676.86.89,676.86.89Z" transform="translate(-11.86 -0.06)"/></g></svg>