<svg xmlns="http://www.w3.org/2000/svg" width="93.962" height="140.498" viewBox="0 0 93.962 140.498"><g transform="translate(-453.478 -524.273)" opacity="0.4"><path d="M481.918,574.5m5.779-2.091c-1.408,1.287-2.484,3.846-4.061,5.369a1.225,1.225,0,0,1-1.069.13,3.825,3.825,0,0,1-1.491-2.566m.013.055c-.1-.475-.234-1.829-.265-2.292a18.2,18.2,0,0,1,.075-2.7l.012-.14a37.53,37.53,0,0,1,1.156-6.07,27.962,27.962,0,0,1,2.065-5.739,10.37,10.37,0,0,1,2.725-3.8,3.057,3.057,0,0,1,1.528-.7,1.777,1.777,0,0,1,2.064,1.445,9.654,9.654,0,0,1-.371,4.583,29.75,29.75,0,0,1-2.443,6.3c-1.939,3.562-6.08,7.926-6.823,8.71" fill="none" stroke="#670816" stroke-miterlimit="10" stroke-width="3"/><path d="M495.748,573.652c-.045.112-.695.811-1.265,1.467a8.817,8.817,0,0,1-2.906,1.964,3.938,3.938,0,0,1-3.4.273c-1.735-.826-1.28-3.179-.661-4.583a12.726,12.726,0,0,1,2.395-3.345,10.989,10.989,0,0,1,2.684-2.1,7.379,7.379,0,0,1,3.84-1.074c.247,0,1.629-.035,2.139.589m3.765-10.086a.453.453,0,0,1,.248.62c-1.445,3.509-2.89,7.06-4.5,10.529l-.867,2.023-.743,1.693a22.035,22.035,0,0,0-.908,2.642,6.48,6.48,0,0,0-.207,1.528,1.241,1.241,0,0,0,.207.867c.536.5,1.445-.495,1.775-.825a23.733,23.733,0,0,0,2.189-2.354l1.486-1.817c.331-.371,1.2-1.6,1.806-2.215" fill="none" stroke="#670816" stroke-miterlimit="10" stroke-width="3"/><path d="M510.563,573.005l-.514.579a24.638,24.638,0,0,1-1.817,1.775c-1.321,1.115-3.055,2.271-4.872,2.065a2.449,2.449,0,0,1-1.982-1.4,5.142,5.142,0,0,1-.083-3.056,11.259,11.259,0,0,1,3.221-5.532,4.848,4.848,0,0,1,2.312-1.322,2,2,0,0,1,2.395,1.074c.413,1.486-.991,2.766-2.064,3.509a13.658,13.658,0,0,1-2.974,1.322,9.025,9.025,0,0,1-.99.289l-1.791.245" fill="none" stroke="#670816" stroke-miterlimit="10" stroke-width="3"/><path d="M517.4,573.771a9.353,9.353,0,0,1-2.849,2.56,3.263,3.263,0,0,1-3.138.082,2.654,2.654,0,0,1-1.032-2.271,6.984,6.984,0,0,1,.95-2.973,11.478,11.478,0,0,1,2.56-3.262,11.182,11.182,0,0,1,2.807-1.982,7.572,7.572,0,0,1,4.129-.784,4.73,4.73,0,0,1,.744.165c.66.207.082,1.115-.083,1.487-.495,1.114-1.032,2.146-1.61,3.22a96.94,96.94,0,0,1-2.478,3.758" fill="none" stroke="#670816" stroke-miterlimit="10" stroke-width="3"/><path d="M545.94,571.253a45.481,45.481,0,1,0-74.364,35.134h0l.008.006q1.1.906,2.261,1.742c2.816,2.212,7.495,6.042,9.544,8.6,2.765,3.451,4.268,12.033,4.51,15.879a1.026,1.026,0,0,0,1.023.965h23.2a.888.888,0,0,0,.888-.837c.216-3.781,1.721-12.517,4.517-16.007,2.049-2.557,6.729-6.387,9.545-8.6q1.158-.837,2.261-1.742l.008-.006h0A45.391,45.391,0,0,0,545.94,571.253Z" fill="none" stroke="#670816" stroke-miterlimit="10" stroke-width="3"/><path d="M496.591,633.308a74.346,74.346,0,0,0-5.722-28.463c-1.622-3.884-3.767-7.836-7.417-9.932-2.212-1.27-4.949-1.851-6.527-3.854-1.3-1.652-1.494-3.889-1.636-5.987l-.711-10.484a12.418,12.418,0,0,0-1.35-5.781c-1.052-1.7-3.3-2.843-5.105-1.987-2.078.985-2.393,3.85-1.86,6.086a8.142,8.142,0,0,0,3.8,5.526c2.509,1.288,5.6,1.243,11.1-3.807" fill="none" stroke="#670816" stroke-miterlimit="10" stroke-width="3"/><path d="M502.639,633.308a76.119,76.119,0,0,1,5.723-28.821c1.622-3.884,3.766-7.837,7.416-9.933,2.212-1.269,4.95-1.85,6.527-3.854,1.3-1.651,1.494-3.889,1.637-5.986.236-3.495.021-7.068.258-10.563a13.357,13.357,0,0,1,1.909-5.867,4.042,4.042,0,0,1,5-1.822c2.078.984,2.393,3.849,1.861,6.086a9.572,9.572,0,0,1-4.114,5.305c-2.338,1.659-7.453,2.506-9.256-.49-.84-1.4-.78-4.944.979-8.679" fill="none" stroke="#670816" stroke-miterlimit="10" stroke-width="3"/><rect width="24.458" height="14.17" transform="translate(488.174 633.294)" fill="none" stroke="#670816" stroke-miterlimit="10" stroke-width="3"/><rect width="24.572" height="1.154" rx="0.308" transform="translate(488.174 648.441)" fill="none" stroke="#670816" stroke-miterlimit="10" stroke-width="3"/><rect width="24.572" height="1.154" rx="0.308" transform="translate(488.174 650.628)" fill="none" stroke="#670816" stroke-miterlimit="10" stroke-width="3"/><rect width="24.572" height="1.154" rx="0.308" transform="translate(488.174 652.814)" fill="none" stroke="#670816" stroke-miterlimit="10" stroke-width="3"/><path d="M512.344,655h-23.77a.387.387,0,0,0-.4.4c.17,1.506,1.327,5.01,2.64,5.458,1.28.437,5.159.768,9.246.735,4.113.033,8.763-.3,10.043-.735,1.314-.448,2.47-3.952,2.641-5.458A.387.387,0,0,0,512.344,655Z" fill="none" stroke="#670816" stroke-miterlimit="10" stroke-width="3"/><rect width="10.992" height="2.693" transform="translate(494.964 660.578)" fill="none" stroke="#670816" stroke-miterlimit="10" stroke-width="3"/><rect width="27.013" height="2.706" transform="translate(482.023 639.714)" fill="none" stroke="#670816" stroke-miterlimit="10" stroke-width="3"/><rect width="2.61" height="10.636" transform="translate(482.023 635.749)" fill="none" stroke="#670816" stroke-miterlimit="10" stroke-width="3"/><rect width="27.013" height="2.706" transform="translate(517.809 642.42) rotate(180)" fill="none" stroke="#670816" stroke-miterlimit="10" stroke-width="3"/><rect width="2.61" height="10.636" transform="translate(517.809 646.385) rotate(180)" fill="none" stroke="#670816" stroke-miterlimit="10" stroke-width="3"/></g></svg>