<svg xmlns="http://www.w3.org/2000/svg" width="118.645" height="137.95" viewBox="0 0 118.645 137.95"><g transform="translate(-1124.851 -1801.214)"><g opacity="0.4"><path d="M1213.369,1873.765v27.057h26.721a26.722,26.722,0,1,1-26.721-27.057Z" fill="#670816"/><path d="M1217.314,1869.794a26.345,26.345,0,0,1,26.173,26.612c0,.062.01.156.009.156h-26.182Z" fill="#670816"/><circle cx="11.364" cy="11.364" r="11.364" transform="translate(1139.045 1801.214)" fill="#670816"/><path d="M1151.423,1880.941H1149.4c-14.252,0-13.348,1.575-13.348-13.348v-27.266c0-15.145-1.654-13.348,13.348-13.348h2.021c15.31,0,13.348-1.13,13.348,13.348v27.266C1164.771,1883.178,1166.816,1880.941,1151.423,1880.941Z" fill="#670816"/><path d="M1157.727,1835.5l18.831,19.347.81.789a4.7,4.7,0,0,0,2.972,1.009h10.882a2.841,2.841,0,0,0-.744-2.923l-8.05-8.251L1165.417,1828a3.059,3.059,0,0,0-4.312-.053l-3.32,3.238A3.055,3.055,0,0,0,1157.727,1835.5Z" fill="#670816"/><path d="M1175.5,1850.246v1.72a4.789,4.789,0,0,0,4.839,4.676H1202.3a4.841,4.841,0,0,0,4.913-4.676v-1.72a4.818,4.818,0,0,0-4.913-4.649H1180.34A4.753,4.753,0,0,0,1175.5,1850.246Z" fill="#670816"/><path d="M1148.993,1932.695a6.47,6.47,0,0,1-6.47,6.469h0a6.469,6.469,0,0,1-6.469-6.469v-52.7a6.469,6.469,0,0,1,6.469-6.47h0a6.47,6.47,0,0,1,6.47,6.47Z" fill="#670816"/><path d="M1164.771,1932.695a6.469,6.469,0,0,1-6.469,6.469h0a6.469,6.469,0,0,1-6.469-6.469v-52.7a6.469,6.469,0,0,1,6.469-6.47h0a6.469,6.469,0,0,1,6.469,6.47Z" fill="#670816"/><rect width="9.783" height="43.549" rx="4.547" transform="translate(1124.851 1835.972)" fill="#670816"/><path d="M1133.087,1844.019h5.649v-17.028s-11.676-.432-13.885,12.617v4.411Z" fill="#670816"/></g><path d="M1151.929,1835.5h-3.114l-1.74,23.375,3.3,3.262,3.3-3.26Z" fill="#efefef"/><path d="M1150.372,1828.649l-2.7,2.057,1.053,3.373h3.3l1.053-3.373Z" fill="#efefef"/></g></svg>