<svg xmlns="http://www.w3.org/2000/svg" width="97.116" height="133.598" viewBox="0 0 97.116 133.598"><g transform="translate(-438.056 -1097.164)"><path d="M535.173,1120.673v110.089H438.056v-133.6H512.12Z" fill="#f1efd9" opacity="0.3"/><path d="M535.173,1120.673H512.12v-23.509Z" fill="#ededec" opacity="0.3"/><rect width="67.712" height="4.336" transform="translate(453.423 1127.749)" fill="#c0bdbd" opacity="0.3"/><rect width="67.94" height="1.239" transform="translate(453.423 1138.704)" fill="#c0bdbd" opacity="0.3"/><rect width="67.94" height="1.239" transform="translate(453.423 1143.286)" fill="#c0bdbd" opacity="0.3"/><rect width="33.97" height="1.239" transform="translate(453.423 1147.904)" fill="#c0bdbd" opacity="0.3"/><rect width="67.94" height="1.239" transform="translate(453.423 1152.523)" fill="#c0bdbd" opacity="0.3"/><rect width="67.94" height="1.24" transform="translate(453.423 1157.142)" fill="#c0bdbd" opacity="0.3"/><rect width="33.97" height="1.238" transform="translate(453.423 1161.761)" fill="#c0bdbd" opacity="0.3"/><rect width="52.533" height="1.239" transform="translate(453.423 1166.38)" fill="#c0bdbd" opacity="0.3"/><rect width="52.533" height="1.239" transform="translate(453.423 1170.998)" fill="#c0bdbd" opacity="0.3"/><rect width="67.94" height="1.239" transform="translate(453.423 1175.617)" fill="#c0bdbd" opacity="0.3"/><rect width="67.94" height="1.239" transform="translate(453.423 1180.235)" fill="#c0bdbd" opacity="0.3"/><rect width="67.94" height="1.24" transform="translate(453.423 1184.854)" fill="#c0bdbd" opacity="0.3"/><rect width="33.19" height="1.238" transform="translate(453.423 1189.474)" fill="#c0bdbd" opacity="0.3"/></g></svg>