<svg xmlns="http://www.w3.org/2000/svg" width="112.072" height="112.071" viewBox="0 0 112.072 112.071"><g transform="translate(-1377.532 -1110.625)" opacity="0.3"><path d="M1433.567,1110.625a56.036,56.036,0,1,0,56.037,56.035A56.031,56.031,0,0,0,1433.567,1110.625Zm4.23,103.415v-3.767a4.229,4.229,0,1,0-8.458,0v3.767a47.644,47.644,0,0,1-43.16-43.283h3.644a4.229,4.229,0,0,0,0-8.458H1386.2a47.648,47.648,0,0,1,43.141-43.018v3.5a4.229,4.229,0,1,0,8.458,0v-3.5a47.646,47.646,0,0,1,43.14,43.018h-3.624a4.229,4.229,0,1,0,0,8.458h3.644A47.644,47.644,0,0,1,1437.8,1214.04Z" fill="#f1efd9"/><path d="M1458.761,1139.361l-25.051,26.249c-.047,0-.095-.007-.143-.007a4.775,4.775,0,0,0-.916.09l-20.964-15.842a3.173,3.173,0,0,0-3.816,5.071l20.959,15.836a4.756,4.756,0,0,0,9.495-.4c0-.126-.009-.249-.018-.372l25.046-26.25a3.172,3.172,0,1,0-4.592-4.378Z" fill="#f1efd9"/></g></svg>