<svg xmlns="http://www.w3.org/2000/svg" xmlns:xlink="http://www.w3.org/1999/xlink" width="191.085" height="101.402" viewBox="0 0 191.085 101.402"><defs><linearGradient id="a" y1="0.5" x2="1" y2="0.5" gradientUnits="objectBoundingBox"><stop offset="0" stop-color="#878a8b"/><stop offset="0.002" stop-color="#a1a3a5"/><stop offset="0.005" stop-color="#bebfc1"/><stop offset="0.007" stop-color="#d5d4d7"/><stop offset="0.01" stop-color="#e5e4e6"/><stop offset="0.014" stop-color="#efedf0"/><stop offset="0.018" stop-color="#f2f0f3"/><stop offset="0.049" stop-color="#d8dadc"/><stop offset="0.189" stop-color="#c8c8c7"/><stop offset="0.506" stop-color="#dddfe1"/><stop offset="0.872" stop-color="#c8c8c7"/><stop offset="0.951" stop-color="#d8dadc"/><stop offset="0.988" stop-color="#f2f0f3"/><stop offset="1" stop-color="#878a8b"/></linearGradient><linearGradient id="b" x1="0.5" y1="1" x2="0.5" gradientUnits="objectBoundingBox"><stop offset="0.341" stop-color="#555959"/><stop offset="0.382" stop-color="#696c6d"/><stop offset="0.474" stop-color="#909394"/><stop offset="0.564" stop-color="#afb2b3"/><stop offset="0.652" stop-color="#c6c8ca"/><stop offset="0.736" stop-color="#d3d5d7"/><stop offset="0.811" stop-color="#d8dadc"/><stop offset="0.982" stop-color="#dddfe1"/></linearGradient><linearGradient id="c" x1="0.5" y1="1" x2="0.5" gradientUnits="objectBoundingBox"><stop offset="0.024" stop-color="#4d5555"/><stop offset="0.476" stop-color="#555959"/><stop offset="0.514" stop-color="#5e6262"/><stop offset="0.619" stop-color="#757879"/><stop offset="0.72" stop-color="#828586"/><stop offset="0.811" stop-color="#878a8b"/></linearGradient><linearGradient id="d" x1="0.5" y1="1" x2="0.5" y2="0" xlink:href="#c"/><linearGradient id="e" x1="0.447" y1="0.995" x2="0.447" y2="-0.001" xlink:href="#c"/></defs><g transform="translate(-860.81 -1115.959)" opacity="0.4"><path d="M1028.109,1207.519c0,2.423-1.463,4.389-3.267,4.389H888.964c-1.8,0-3.267-1.966-3.267-4.389v-87.173c0-2.422,1.463-4.387,3.267-4.387h135.878c1.8,0,3.267,1.965,3.267,4.387Z" fill="#040505"/><path d="M860.893,1213.315s-1.186,2.206,7.233,4.046h176.236s5.9-.378,7.449-3.158l.01-1.521Z" fill="#4d5555"/><path d="M860.934,1208.859h190.949v4.9s.286.655-1.962.491H862.732s-1.759.491-1.922-.654Z" fill="url(#a)"/><path d="M1043.013,1211.722a.317.317,0,0,1-.282.344h-6.5a.318.318,0,0,1-.283-.344h0a.319.319,0,0,1,.283-.345h6.5a.318.318,0,0,1,.282.345Z" fill="#4d5555"/><path d="M943.439,1208.9s-.736,2.452,1.716,2.7h22.152s2.357.306,2.044-2.616Z" fill="url(#b)"/><path d="M943.562,1208.9h.015l.009-.057h-.27s-.667,2.129,1.4,2.53C942.948,1210.852,943.562,1208.9,943.562,1208.9Z" fill="url(#c)"/><path d="M969.473,1208.975h-.238v.059c.172,2.759-2.051,2.383-2.051,2.383H945.033a2.915,2.915,0,0,1-.32-.048,2.893,2.893,0,0,0,.565.106H967.43S969.718,1211.866,969.473,1208.975Z" fill="url(#d)"/><path d="M969.235,1209.033v-.059h0C969.233,1208.994,969.233,1209.012,969.235,1209.033Z" fill="url(#e)"/><rect width="131.445" height="81.033" transform="translate(891.375 1121.226)" fill="#670816"/></g></svg>