<svg xmlns="http://www.w3.org/2000/svg" width="124.403" height="106.104" viewBox="0 0 124.403 106.104"><path d="M768.931,1887.032c1.917-2.276,3.811-4.57,5.706-6.864,1.93-2.335,3.925-4.621,5.772-7.023q.695-.906,1.389-1.809c.351-.457.73-.9,1.054-1.38l1.421-2.087c.3-.44.623-.871.9-1.326.824-1.379,1.686-2.742,2.461-4.149a48.442,48.442,0,0,0,4.864-12.1c.223-.946.4-1.9.547-2.861.21-1.358.4-2.724.486-4.1a31.485,31.485,0,0,0-.567-7.051c-.154-.93-.363-1.853-.593-2.767a23.7,23.7,0,0,0-1.319-3.71,26.979,26.979,0,0,0-3.492-5.634,21.443,21.443,0,0,0-4.783-4.457,28.251,28.251,0,0,0-12.359-4.4,21.124,21.124,0,0,0-2.684-.166,25.876,25.876,0,0,0-3.326.223,33.858,33.858,0,0,0-6.634,1.448,25.85,25.85,0,0,0-5.829,2.78c-.984.645-1.905,1.391-2.819,2.128-.807.648-1.575,1.342-2.32,2.058a44.946,44.946,0,0,0-4,4.426,52.81,52.81,0,0,0-5.781,8.984c-.7,1.381-1.319,2.8-1.9,4.235-.152-.321-.308-.64-.479-.953a21.1,21.1,0,0,0-1.92-2.8c-.618-.8-1.292-1.548-1.956-2.307-.833-.953-1.664-1.908-2.522-2.84-.656-.714-1.306-1.43-1.988-2.12a29.963,29.963,0,0,0-4.92-4.014,35.41,35.41,0,0,0-5.062-2.8,31.908,31.908,0,0,0-6.367-2.212c-1.231-.254-2.488-.412-3.737-.545a28.015,28.015,0,0,0-2.994-.162h-.027a40.8,40.8,0,0,0-6.858.685,26.912,26.912,0,0,0-5.8,1.595,45.654,45.654,0,0,0-6.089,3.058,39.01,39.01,0,0,0-5.493,4.046,31.623,31.623,0,0,0-4.466,4.938,27.392,27.392,0,0,0-3.2,5.951,25.192,25.192,0,0,0-1.6,5.45,27.387,27.387,0,0,0-.408,7.023,25.219,25.219,0,0,0,1.485,6.663,43.574,43.574,0,0,0,6.143,11.006,55.62,55.62,0,0,0,4.432,5.223c.626.647,1.275,1.265,1.929,1.884l1.842,1.747c.437.415.917.793,1.375,1.187.788.676,1.561,1.362,2.4,1.975l1.86,1.363c.494.361.978.753,1.49,1.089q.971.634,1.938,1.27c2.233,1.464,4.53,2.827,6.825,4.194,4.941,2.944,9.835,5.967,14.77,8.919,4.655,2.785,9.34,5.518,13.849,8.534,2.361,1.58,4.68,3.22,7.01,4.845q1.788,1.243,3.565,2.5c.976.688,1.943,1.4,2.945,2.048.816.529,1.631,1.042,2.467,1.536.756.446,1.538.845,2.3,1.286a4.136,4.136,0,0,0,6.072-2.47q.067-.5.134-1a3.75,3.75,0,0,0,.716-2.11c.055-.947.064-1.9.136-2.842a31.2,31.2,0,0,1,.829-3.687,36.392,36.392,0,0,1,1.267-3.5c1.061-2.222,2.214-4.387,3.449-6.519.641-1.11,1.342-2.179,2.034-3.259.6-.941,1.292-1.836,1.944-2.745C765.912,1890.7,767.4,1888.85,768.931,1887.032Zm-6.883-5.212c-.869,1.115-1.746,2.229-2.579,3.371-.792,1.084-1.63,2.146-2.368,3.269-.807,1.229-1.618,2.447-2.363,3.713-.72,1.225-1.391,2.466-2.056,3.723-.628,1.185-1.223,2.417-1.76,3.647-.656,1.5-1.357,3.006-1.874,4.564a39.652,39.652,0,0,0-1.178,4.129c-.038.177-.073.355-.109.532q-.41-.351-.82-.7c-.766-.656-1.592-1.249-2.391-1.866-.546-.421-1.082-.858-1.638-1.265-1.049-.768-2.095-1.545-3.156-2.3-1.15-.815-2.285-1.658-3.459-2.438-1.149-.763-2.282-1.559-3.459-2.279-2.6-1.585-5.206-3.134-7.832-4.669-1.2-.7-2.426-1.344-3.64-2.015-1.25-.692-2.491-1.4-3.736-2.1-2.22-1.25-4.413-2.547-6.625-3.81-2.34-1.334-4.7-2.64-7.03-3.99-1.219-.705-2.462-1.379-3.658-2.124-1.16-.722-2.36-1.4-3.48-2.185l-2.807-1.96c-1.054-.859-2.106-1.715-3.111-2.632l-2.106-1.922c-.828-.754-1.6-1.581-2.363-2.4-.679-.73-1.322-1.493-1.943-2.273a40.68,40.68,0,0,1-4.556-7.666,23.589,23.589,0,0,1-1.325-4.618,22.467,22.467,0,0,1,.053-4.483,25.038,25.038,0,0,1,1.4-5.034,24.541,24.541,0,0,1,2.454-4.255,29.445,29.445,0,0,1,4.3-4.218,40.982,40.982,0,0,1,3.482-2.305,38.39,38.39,0,0,1,3.8-2.011,35.5,35.5,0,0,1,7.731-1.968,32.215,32.215,0,0,1,7.226-.018,30.379,30.379,0,0,1,6.524,1.838,32.07,32.07,0,0,1,6.335,3.607c1.373,1.089,2.691,2.246,4.007,3.405.559.493,1.1,1,1.648,1.512a28.461,28.461,0,0,1,2.786,2.878,19.792,19.792,0,0,1,2.081,3.74c.158.393.3.792.433,1.192a3.5,3.5,0,0,0,.4,2.582,3.539,3.539,0,0,0,4.841,1.27l.716-.554a3.528,3.528,0,0,0,.91-1.561c.718-1.93,1.417-3.872,2.2-5.778a45.954,45.954,0,0,1,5.425-9.2,42.193,42.193,0,0,1,6.659-6.771,23.506,23.506,0,0,1,4.264-2.548,27.127,27.127,0,0,1,5.7-1.518,25.148,25.148,0,0,1,5.451-.045,19.311,19.311,0,0,1,8.73,3.6,18.633,18.633,0,0,1,2.429,2.469,23.42,23.42,0,0,1,2.281,3.922,24.394,24.394,0,0,1,1.2,4.866,26.705,26.705,0,0,1,.064,5.826,40.919,40.919,0,0,1-2.516,8.974,67.322,67.322,0,0,1-3.552,6.765l-1.2,2.045c-.3.508-.646.992-.968,1.485l-1.278,1.955c-.349.534-.754,1.04-1.128,1.558-.854,1.176-1.722,2.33-2.608,3.481-.151.2-.3.393-.454.589C767.629,1874.491,764.847,1878.162,762.048,1881.82Z" transform="translate(-669.16 -1815.152)" fill="#670816" opacity="0.4"/></svg>